<svg width="32" height="32" viewBox="0 0 32 32" fill="none" xmlns="http://www.w3.org/2000/svg">
<path d="M17.207 6.69019H14.793V19.4394H17.207V6.69019Z" fill="#708DC7"/>
<path d="M16.0001 8.70224C18.4031 8.70224 20.3512 6.75418 20.3512 4.35112C20.3512 1.94806 18.4031 0 16.0001 0C13.597 0 11.6489 1.94806 11.6489 4.35112C11.6489 6.75418 13.597 8.70224 16.0001 8.70224Z" fill="#708DC7"/>
<path d="M24.4326 24.132V26.572H7.56787V24.132C7.56787 22.9964 8.48716 22.0771 9.62272 22.0771H22.3777C23.5132 22.0771 24.4326 22.9964 24.4326 24.132Z" fill="#708DC7"/>
<path d="M22.101 19.9749V22.0772H9.90039V19.9749C9.90039 18.8394 10.8195 17.9202 11.9552 17.9202H20.0463C21.1818 17.9202 22.101 18.8395 22.101 19.9749Z" fill="#708DC7"/>
</svg>
