<svg width="26" height="22" viewBox="0 0 26 22" fill="none" xmlns="http://www.w3.org/2000/svg">
<path d="M25.2226 8.30386L24.5746 7.17183C24.5455 7.12192 24.4978 7.08557 24.4419 7.07072C24.3861 7.05586 24.3266 7.0637 24.2765 7.09253L22.8902 7.90191L20.7492 1.99019C20.6362 1.63744 20.4139 1.32974 20.1146 1.11152C19.8153 0.893295 19.4544 0.775845 19.084 0.776124H7.23591C6.28708 0.776124 5.4449 1.38862 5.15232 2.2937L3.11247 7.90464L1.72341 7.09526C1.67333 7.06644 1.61388 7.05859 1.55804 7.07345C1.50219 7.08831 1.4545 7.12466 1.42536 7.17456L0.777318 8.30386C0.717162 8.40776 0.752709 8.53901 0.856615 8.59917L2.50818 9.56167L2.11169 10.6554C2.07888 10.7429 2.06247 10.8359 2.06247 10.9289V20.45C2.06247 20.8792 2.38513 21.2265 2.78162 21.2265H4.63005C4.96638 21.2265 5.25896 20.9722 5.33005 20.6167L5.5406 19.5859H20.4593L20.6699 20.6167C20.7437 20.9722 21.0336 21.2265 21.3699 21.2265H23.2183C23.6148 21.2265 23.9375 20.8792 23.9375 20.45V10.9289C23.9375 10.8359 23.9211 10.7429 23.8883 10.6554L23.4918 9.56167L25.1406 8.59917C25.1902 8.57051 25.2266 8.52351 25.242 8.46828C25.2573 8.41306 25.2504 8.35401 25.2226 8.30386ZM6.21872 13.9804C5.61443 13.9804 5.12497 13.491 5.12497 12.8867C5.12497 12.2824 5.61443 11.7929 6.21872 11.7929C6.82302 11.7929 7.31247 12.2824 7.31247 12.8867C7.31247 13.491 6.82302 13.9804 6.21872 13.9804ZM16.8281 16.0312C16.8281 16.1515 16.7297 16.25 16.6093 16.25H9.3906C9.27029 16.25 9.17185 16.1515 9.17185 16.0312V13.7343C9.17185 13.614 9.27029 13.5156 9.3906 13.5156H10.4843C10.6047 13.5156 10.7031 13.614 10.7031 13.7343V14.7187H15.2968V13.7343C15.2968 13.614 15.3953 13.5156 15.5156 13.5156H16.6093C16.7297 13.5156 16.8281 13.614 16.8281 13.7343V16.0312ZM19.7812 13.9804C19.1769 13.9804 18.6875 13.491 18.6875 12.8867C18.6875 12.2824 19.1769 11.7929 19.7812 11.7929C20.3855 11.7929 20.875 12.2824 20.875 12.8867C20.875 13.491 20.3855 13.9804 19.7812 13.9804ZM5.0156 8.42964L7.00349 2.96362L7.01716 2.92808L7.0281 2.89253C7.05818 2.8023 7.14021 2.74214 7.23591 2.74214H18.9281L20.9898 8.42964H5.0156Z" fill="#219653"/>
</svg>
