<svg width="28" height="27" viewBox="0 0 28 27" fill="none" xmlns="http://www.w3.org/2000/svg">
<g clip-path="url(#clip0)">
<path d="M24.6791 0.677482C24.2522 0.240662 23.6635 0 23.0213 0H21.2563C19.9556 0 18.7142 0.994915 18.4893 2.21792L18.378 2.82275C18.2662 3.43136 18.4167 4.00781 18.8022 4.44597C19.1876 4.88412 19.7563 5.12534 20.4036 5.12534H22.6835C22.9998 5.12534 23.3058 5.06503 23.59 4.958L23.3477 6.93414C23.1145 6.84057 22.8584 6.79073 22.5893 6.79073H19.9881C18.8737 6.79073 17.7792 7.63733 17.548 8.67786L15.2481 19.0283L4.39721 18.284C3.81084 18.2439 3.32132 18.4336 3.01781 18.8061C2.73354 19.1551 2.65044 19.6232 2.78366 20.1243L4.04523 24.8661C4.31854 25.8934 5.44432 26.7293 6.5546 26.7293H15.6514H15.7902H20.4207C21.5458 26.7293 22.5578 25.8602 22.6765 24.7921L24.4565 8.77232C24.4666 8.68075 24.4678 8.59052 24.4645 8.50117L25.0738 3.5335C25.1598 3.31954 25.2144 3.09211 25.2316 2.85624L25.2719 2.30326C25.3166 1.69176 25.106 1.11441 24.6791 0.677482Z" fill="#708DC7"/>
</g>
<defs>
<clipPath id="clip0">
<rect width="28" height="26.7293" fill="white"/>
</clipPath>
</defs>
</svg>
