<svg width="30" height="30" viewBox="0 0 30 30" fill="none" xmlns="http://www.w3.org/2000/svg">
<path d="M28.8106 13.9171L25.7581 10.8646L23.6356 8.74206L16.0831 1.18956C15.9439 1.05014 15.7786 0.939532 15.5966 0.864066C15.4147 0.7886 15.2196 0.749756 15.0226 0.749756C14.8256 0.749756 14.6305 0.7886 14.4486 0.864066C14.2666 0.939532 14.1013 1.05014 13.9621 1.18956L6.2266 8.92356L4.1041 11.0446C3.6853 11.4619 3.35329 11.958 3.12725 12.5043C2.90121 13.0507 2.7856 13.6363 2.7871 14.2276C2.7871 15.4306 3.2566 16.5616 4.1056 17.4091L5.1661 18.4696L1.9831 21.6526C1.56411 22.065 1.23228 22.5574 1.00732 23.1006C0.782371 23.6438 0.668882 24.2267 0.673597 24.8146C0.666513 25.4737 0.805875 26.1261 1.08162 26.7248C1.35736 27.3235 1.76261 27.8535 2.2681 28.2766C3.06096 28.9403 4.06308 29.3022 5.0971 29.2981C6.3481 29.2981 7.5781 28.7866 8.4721 27.8926L11.5306 24.8341L12.5911 25.8931C14.2906 27.5926 17.2516 27.5941 18.9541 25.8946L20.0161 24.8341L20.8696 23.9806L21.0766 23.7736L28.8106 16.0381C28.95 15.8989 29.0606 15.7336 29.1361 15.5516C29.2116 15.3696 29.2504 15.1746 29.2504 14.9776C29.2504 14.7806 29.2116 14.5855 29.1361 14.4035C29.0606 14.2215 28.95 14.0562 28.8106 13.9171ZM17.8951 22.7146L16.8331 23.7736C16.5479 24.0473 16.1679 24.2001 15.7726 24.2001C15.3773 24.2001 14.9973 24.0473 14.7121 23.7736L12.5911 21.6541C12.4519 21.5146 12.2866 21.404 12.1046 21.3286C11.9227 21.2531 11.7276 21.2143 11.5306 21.2143C11.3336 21.2143 11.1385 21.2531 10.9566 21.3286C10.7746 21.404 10.6093 21.5146 10.4701 21.6541L6.3511 25.7716C6.01901 26.1059 5.56835 26.2957 5.0971 26.2996C4.77201 26.3047 4.45569 26.1941 4.2046 25.9876C4.03297 25.8451 3.89598 25.6654 3.80399 25.4622C3.712 25.259 3.66741 25.0375 3.6736 24.8146C3.67168 24.6215 3.70884 24.43 3.78282 24.2516C3.8568 24.0732 3.96608 23.9116 4.1041 23.7766L8.3476 19.5331C8.48702 19.3939 8.59762 19.2286 8.67309 19.0466C8.74856 18.8646 8.7874 18.6696 8.7874 18.4726C8.7874 18.2756 8.74856 18.0805 8.67309 17.8985C8.59762 17.7165 8.48702 17.5512 8.3476 17.4121L6.2266 15.2896C5.9431 15.0076 5.7871 14.6326 5.7871 14.2306C5.7871 13.8286 5.9431 13.4521 6.2266 13.1686L7.2871 12.1081L12.5911 17.4121L17.8951 22.7146Z" fill="#708DC7"/>
</svg>
