<svg width="28" height="28" viewBox="0 0 28 28" fill="none" xmlns="http://www.w3.org/2000/svg">
<path d="M16.3334 2.33325H7.00008C6.38124 2.33325 5.78775 2.57908 5.35017 3.01667C4.91258 3.45425 4.66675 4.04775 4.66675 4.66659V23.3333C4.66675 23.9521 4.91258 24.5456 5.35017 24.9832C5.78775 25.4208 6.38124 25.6666 7.00008 25.6666H21.0001C21.6189 25.6666 22.2124 25.4208 22.65 24.9832C23.0876 24.5456 23.3334 23.9521 23.3334 23.3333V9.33325L16.3334 2.33325Z" stroke="#E85513" stroke-width="2" stroke-linecap="round" stroke-linejoin="round"/>
<path d="M16.3333 2.33325V9.33325H23.3333" stroke="#E85513" stroke-width="2" stroke-linecap="round" stroke-linejoin="round"/>
<path d="M18.6666 15.1667H9.33325" stroke="#E85513" stroke-width="2" stroke-linecap="round" stroke-linejoin="round"/>
<path d="M18.6666 19.8333H9.33325" stroke="#E85513" stroke-width="2" stroke-linecap="round" stroke-linejoin="round"/>
<path d="M11.6666 10.5H10.4999H9.33325" stroke="#E85513" stroke-width="2" stroke-linecap="round" stroke-linejoin="round"/>
</svg>
