<svg width="12" height="12" viewBox="0 0 12 12" fill="none" xmlns="http://www.w3.org/2000/svg">
<path d="M8.5 1H3.5C2.11929 1 1 2.11929 1 3.5V8.5C1 9.88071 2.11929 11 3.5 11H8.5C9.88071 11 11 9.88071 11 8.5V3.5C11 2.11929 9.88071 1 8.5 1Z" stroke="black" stroke-linecap="round" stroke-linejoin="round"/>
<path d="M7.99985 5.68503C8.06156 6.10115 7.99048 6.52614 7.79673 6.89954C7.60298 7.27294 7.29643 7.57573 6.92067 7.76486C6.54491 7.954 6.11908 8.01983 5.70375 7.95299C5.28842 7.88616 4.90473 7.69007 4.60727 7.39261C4.30981 7.09515 4.11372 6.71147 4.04689 6.29614C3.98005 5.8808 4.04589 5.45498 4.23502 5.07922C4.42415 4.70346 4.72695 4.3969 5.10035 4.20315C5.47375 4.0094 5.89873 3.93832 6.31485 4.00003C6.73932 4.06297 7.13228 4.26076 7.4357 4.56418C7.73912 4.8676 7.93691 5.26057 7.99985 5.68503Z" stroke="black" stroke-linecap="round" stroke-linejoin="round"/>
<path d="M8.75 3.25H8.755" stroke="black" stroke-linecap="round" stroke-linejoin="round"/>
</svg>
