<svg width="26" height="24" viewBox="0 0 26 24" fill="none" xmlns="http://www.w3.org/2000/svg">
<g clip-path="url(#clip0)">
<path d="M0.126633 18.8752L6.4366 3.87516C6.66094 3.34172 7.14979 3 7.68785 3H12.093L11.9824 4.08563C11.9598 4.30688 12.1273 4.5 12.3417 4.5H13.6579C13.8723 4.5 14.0398 4.30688 14.0172 4.08563L13.9066 3H18.3117C18.8502 3 19.3391 3.34172 19.5634 3.87516L25.8734 18.8752C26.2909 19.8684 25.6247 21 24.6213 21H15.7361L15.2707 16.4213C15.2319 16.0397 14.9223 15.75 14.5526 15.75H11.447C11.0773 15.75 10.7677 16.0397 10.7289 16.4213L10.2635 21H1.37833C0.374895 21 -0.291355 19.8684 0.126633 18.8752ZM14.2456 6.33563C14.2363 6.24346 14.1944 6.15817 14.128 6.09619C14.0617 6.03422 13.9756 5.99995 13.8863 6H12.1128C11.9282 6 11.7729 6.14484 11.7535 6.33563L11.5459 8.37844C11.512 8.71078 11.763 9 12.0844 9H13.9143C14.2361 9 14.4867 8.71078 14.4528 8.37844L14.2456 6.33563ZM11.7522 14.25H14.2479C14.6767 14.25 15.0112 13.8642 14.966 13.4213L14.7372 11.1713C14.6984 10.7897 14.3887 10.5 14.019 10.5H11.981C11.6113 10.5 11.3017 10.7897 11.2628 11.1713L11.034 13.4213C10.9889 13.8642 11.3233 14.25 11.7522 14.25Z" fill="#708DC7"/>
</g>
<defs>
<clipPath id="clip0">
<rect width="26" height="24" fill="white" transform="matrix(-1 0 0 1 26 0)"/>
</clipPath>
</defs>
</svg>
