<svg width="32" height="30" viewBox="0 0 32 30" fill="none" xmlns="http://www.w3.org/2000/svg">
<g clip-path="url(#clip0)">
<path d="M15.9999 0.653809C13.9055 0.653809 11.9067 1.06162 10.0036 1.87725C8.10046 2.69287 6.45914 3.79044 5.07962 5.16995C3.70011 6.54947 2.60254 8.19582 1.78691 10.109C0.971289 12.0222 0.563477 14.026 0.563477 16.1205C0.563477 18.7788 1.20289 21.266 2.48171 23.5819C3.76052 25.8979 5.53778 27.7708 7.81348 29.2007C8.035 29.3417 8.27667 29.3819 8.53848 29.3215C8.80028 29.2611 9.00167 29.1201 9.14264 28.8986C9.28362 28.6771 9.32389 28.4354 9.26348 28.1736C9.20306 27.9118 9.06209 27.7104 8.84056 27.5694C7.20931 26.5423 5.86 25.2434 4.79264 23.6726L5.81973 23.0684C6.04125 22.9476 6.18726 22.7562 6.25775 22.4944C6.32823 22.2326 6.29802 21.9859 6.16712 21.7543C6.03622 21.5227 5.83987 21.3717 5.57806 21.3012C5.31625 21.2307 5.07459 21.266 4.85306 21.4069L3.82598 21.9809C3.46348 21.2156 3.17146 20.4201 2.94993 19.5944C2.72841 18.7687 2.58743 17.9229 2.52702 17.0569H3.58431C3.86625 17.0569 4.09785 16.9613 4.2791 16.77C4.46035 16.5786 4.55098 16.3521 4.55098 16.0903C4.55098 15.8285 4.46035 15.6019 4.2791 15.4106C4.09785 15.2193 3.86625 15.1236 3.58431 15.1236H2.52702C2.64785 13.3715 3.10098 11.7101 3.88639 10.1392L4.85306 10.7132C4.99403 10.7937 5.15514 10.834 5.33639 10.834C5.69889 10.834 5.97077 10.6729 6.15202 10.3507C6.29299 10.1292 6.32823 9.88749 6.25775 9.62568C6.18726 9.36388 6.04125 9.17256 5.81973 9.05173L4.85306 8.47777C5.83987 7.04791 7.0482 5.84964 8.47806 4.88298L9.02181 5.81943C9.20306 6.14166 9.485 6.30277 9.86764 6.30277C10.0288 6.30277 10.1899 6.26249 10.351 6.18193C10.4517 6.12152 10.5423 6.03593 10.6229 5.92516C10.7034 5.8144 10.7588 5.70363 10.789 5.59287C10.8192 5.48211 10.8293 5.36127 10.8192 5.23037C10.8091 5.09947 10.7638 4.9736 10.6833 4.85277L10.1395 3.91631C10.9048 3.55381 11.6952 3.26683 12.5109 3.05537C13.3265 2.84391 14.1572 2.69791 15.0031 2.61735V3.82568C15.0031 4.10763 15.0987 4.33923 15.29 4.52048C15.4814 4.70173 15.713 4.79235 15.9848 4.79235C16.2567 4.79235 16.4833 4.70173 16.6645 4.52048C16.8458 4.33923 16.9364 4.10763 16.9364 3.82568V2.61735C18.6885 2.73818 20.3499 3.18124 21.9208 3.94652L21.377 4.85277C21.3569 4.91318 21.3367 4.96857 21.3166 5.01891C21.2965 5.06926 21.2814 5.12464 21.2713 5.18506C21.2612 5.24548 21.2562 5.30086 21.2562 5.3512C21.2562 5.40155 21.2612 5.45693 21.2713 5.51735C21.2814 5.57777 21.2965 5.63315 21.3166 5.6835C21.3367 5.73384 21.3619 5.78419 21.3921 5.83454C21.4223 5.88488 21.4525 5.9302 21.4827 5.97048C21.513 6.01075 21.5482 6.05103 21.5885 6.09131C21.6288 6.13159 21.6791 6.16179 21.7395 6.18193L21.8603 6.24235L21.9812 6.28766L22.102 6.30277H22.2228C22.3034 6.30277 22.384 6.2927 22.4645 6.27256C22.5451 6.25242 22.6206 6.22221 22.6911 6.18193C22.7616 6.14166 22.8321 6.09131 22.9025 6.03089C22.973 5.97048 23.0284 5.89999 23.0687 5.81943L23.5822 4.91318C25.0121 5.89999 26.2104 7.09825 27.177 8.50798L26.2708 9.05173C26.1499 9.11214 26.0543 9.1927 25.9838 9.29339C25.9133 9.39409 25.8579 9.50485 25.8176 9.62568C25.7774 9.74652 25.7673 9.87239 25.7874 10.0033C25.8076 10.1342 25.8478 10.25 25.9083 10.3507C26.009 10.5118 26.1348 10.6326 26.2859 10.7132C26.4369 10.7937 26.593 10.834 26.7541 10.834C26.8347 10.834 26.9152 10.8239 26.9958 10.8038C27.0763 10.7837 27.1569 10.7535 27.2374 10.7132L28.1437 10.1996C28.909 11.7503 29.352 13.4017 29.4728 15.1538H28.4156C28.1538 15.1538 27.9272 15.2495 27.7359 15.4408C27.5445 15.6321 27.4489 15.8587 27.4489 16.1205C27.4489 16.3823 27.5445 16.6088 27.7359 16.8002C27.9272 16.9915 28.1538 17.0871 28.4156 17.0871H29.4728C29.352 18.7989 28.9291 20.4201 28.2041 21.9507L27.2374 21.4069C26.9958 21.266 26.7491 21.2307 26.4973 21.3012C26.2456 21.3717 26.0492 21.5278 25.9083 21.7694C25.8478 21.8701 25.8076 21.9859 25.7874 22.1168C25.7673 22.2477 25.7774 22.3736 25.8176 22.4944C25.8579 22.6153 25.9133 22.726 25.9838 22.8267C26.0543 22.9274 26.1499 23.008 26.2708 23.0684L27.2374 23.6423C26.1499 25.2535 24.7603 26.5826 23.0687 27.6299C22.8472 27.7708 22.7062 27.9672 22.6458 28.2189C22.5854 28.4706 22.6256 28.7174 22.7666 28.959C22.827 29.0396 22.9025 29.1151 22.9932 29.1856C23.0838 29.2561 23.1794 29.3114 23.2801 29.3517C23.3808 29.392 23.4815 29.4121 23.5822 29.4121C23.7635 29.4121 23.9347 29.3618 24.0958 29.2611C26.3916 27.8514 28.189 25.9835 29.488 23.6575C30.7869 21.3314 31.4364 18.809 31.4364 16.0903C31.4364 14.016 31.0286 12.0222 30.213 10.109C29.3973 8.19582 28.2998 6.54947 26.9202 5.16995C25.5407 3.79044 23.8994 2.69287 21.9963 1.87725C20.0932 1.06162 18.0944 0.653809 15.9999 0.653809ZM23.1291 13.0996C23.2902 12.9989 23.411 12.8731 23.4916 12.722C23.5722 12.571 23.6124 12.4149 23.6124 12.2538C23.6124 12.0927 23.5722 11.9316 23.4916 11.7705C23.3506 11.5489 23.1543 11.4029 22.9025 11.3325C22.6508 11.262 22.4041 11.2871 22.1624 11.408L16.9062 14.459C16.6041 14.2778 16.2919 14.1871 15.9697 14.1871C15.4461 14.1871 14.993 14.3785 14.6104 14.7611C14.2277 15.1437 14.0364 15.5969 14.0364 16.1205C14.0364 16.4628 14.122 16.7851 14.2932 17.0871C14.4643 17.3892 14.701 17.6259 15.0031 17.797C15.3051 17.9682 15.6274 18.0538 15.9697 18.0538C16.4933 18.0538 16.9465 17.8625 17.3291 17.4798C17.7117 17.0972 17.9031 16.6441 17.9031 16.1205L23.1291 13.0996Z" fill="#708DC7"/>
</g>
<defs>
<clipPath id="clip0">
<rect width="30.9333" height="29" fill="white" transform="translate(0.533203 0.532959)"/>
</clipPath>
</defs>
</svg>
