<svg width="32" height="32" viewBox="0 0 32 32" fill="none" xmlns="http://www.w3.org/2000/svg">
<path d="M13.6806 15.4386L23.9479 5.17139L26.6906 7.91406L24.8621 9.74251L27.6048 12.4852L23.0337 17.0576L20.291 14.3149L16.4246 18.1813C17.1365 19.5511 17.3351 21.1303 16.9844 22.6337C16.6336 24.1371 15.7568 25.4654 14.5122 26.3788C13.2677 27.2921 11.7375 27.7302 10.1981 27.6139C8.65878 27.4976 7.21178 26.8346 6.11857 25.7447C5.02481 24.6526 4.35841 23.2049 4.24015 21.6639C4.1219 20.1228 4.55959 18.5904 5.47393 17.3443C6.38827 16.0982 7.71875 15.2208 9.22428 14.8712C10.7298 14.5216 12.3107 14.7229 13.6806 15.4386ZM12.5181 23.0007C12.7651 22.7621 12.9622 22.4768 13.0977 22.1612C13.2333 21.8457 13.3046 21.5063 13.3076 21.1629C13.3106 20.8195 13.2451 20.479 13.1151 20.1612C12.9851 19.8433 12.793 19.5546 12.5502 19.3117C12.3074 19.0689 12.0186 18.8769 11.7008 18.7468C11.3829 18.6168 11.0424 18.5514 10.699 18.5544C10.3556 18.5573 10.0162 18.6287 9.70071 18.7642C9.38519 18.8998 9.09981 19.0968 8.86124 19.3438C8.39014 19.8316 8.12947 20.4848 8.13536 21.1629C8.14125 21.841 8.41324 22.4897 8.89275 22.9692C9.37225 23.4487 10.0209 23.7207 10.699 23.7266C11.3771 23.7325 12.0304 23.4718 12.5181 23.0007Z" fill="#708DC7"/>
</svg>
