<svg width="22" height="24" viewBox="0 0 22 24" fill="none" xmlns="http://www.w3.org/2000/svg">
<path d="M20.5781 5.81683L20.5907 5.80387L15.8938 0.981644L14.5554 2.35572L17.2195 5.0909C16.0327 5.55757 15.1867 6.72424 15.1867 8.11127C15.1867 8.53685 15.2684 8.95827 15.427 9.35145C15.5856 9.74464 15.8181 10.1019 16.1112 10.4028C16.7032 11.0106 17.5061 11.352 18.3433 11.352C18.7978 11.352 19.2145 11.2483 19.6059 11.0798V20.4261C19.6059 21.1391 19.0377 21.7224 18.3433 21.7224C17.6488 21.7224 17.0806 21.1391 17.0806 20.4261V14.5928C17.0806 13.1668 15.9443 12.0002 14.5554 12.0002H13.2928V2.92609C13.2928 1.50016 12.1564 0.333496 10.7675 0.333496H3.19176C1.80287 0.333496 0.666504 1.50016 0.666504 2.92609V23.6668H13.2928V13.9446H15.1867V20.4261C15.1867 21.2856 15.5193 22.1099 16.1112 22.7176C16.7032 23.3254 17.5061 23.6668 18.3433 23.6668C19.1804 23.6668 19.9833 23.3254 20.5753 22.7176C21.1673 22.1099 21.4998 21.2856 21.4998 20.4261V8.11127C21.4998 7.21683 21.1463 6.40016 20.5781 5.81683ZM10.7675 9.40757H3.19176V2.92609H10.7675V9.40757ZM18.3433 9.40757C17.6488 9.40757 17.0806 8.82424 17.0806 8.11127C17.0806 7.39831 17.6488 6.81498 18.3433 6.81498C19.0377 6.81498 19.6059 7.39831 19.6059 8.11127C19.6059 8.82424 19.0377 9.40757 18.3433 9.40757Z" fill="#708DC7"/>
</svg>
